<?xml version="1.0" standalone="no"?>
<!DOCTYPE svg PUBLIC "-//W3C//DTD SVG 20010904//EN"
 "http://www.w3.org/TR/2001/REC-SVG-20010904/DTD/svg10.dtd">
<svg version="1.0" xmlns="http://www.w3.org/2000/svg"
 width="1280.000000pt" height="1280.000000pt" viewBox="0 0 1280.000000 1280.000000"
 preserveAspectRatio="xMidYMid meet">
<metadata>
Created by potrace 1.14, written by Peter Selinger 2001-2017
</metadata>
<g transform="translate(0.000000,1280.000000) scale(0.100000,-0.100000)"
fill="#000000" stroke="none">
<path d="M6298 11144 c-43 -24 -107 -72 -142 -105 -158 -148 -191 -298 -102
-466 20 -37 35 -67 33 -68 -1 -1 -47 -20 -102 -43 -195 -82 -334 -192 -394
-313 -54 -109 -40 -235 40 -360 45 -69 155 -187 219 -234 22 -17 40 -34 40
-38 0 -17 -59 -93 -115 -149 -68 -67 -147 -104 -203 -93 -72 13 -147 85 -202
194 -17 35 -20 49 -11 67 13 29 66 57 91 49 18 -6 19 -3 13 27 -8 46 -30 86
-52 98 -28 14 -81 12 -111 -5 -39 -22 -41 -18 -20 31 28 64 26 103 -8 143 -19
23 -42 37 -77 46 -46 12 -53 11 -89 -9 -80 -44 -99 -126 -46 -209 16 -26 28
-47 26 -47 -2 0 -17 7 -32 15 -30 15 -80 20 -109 9 -21 -8 -45 -56 -45 -90 0
-25 2 -26 36 -20 52 10 99 -9 125 -50 21 -34 21 -36 4 -81 -23 -60 -68 -109
-112 -124 -47 -15 -175 -6 -228 16 -139 59 -137 56 -121 110 21 69 52 105 89
105 l32 1 -28 24 c-20 18 -40 25 -68 25 l-39 0 0 74 c0 94 -31 270 -64 364
-51 147 -131 248 -236 300 -49 24 -67 27 -167 29 -99 1 -116 4 -145 24 -18 13
-35 26 -38 29 -30 35 -229 132 -320 157 -69 18 -261 25 -314 10 l-28 -8 58
-41 c335 -233 678 -651 894 -1088 45 -90 66 -136 130 -285 33 -78 120 -337
120 -359 0 -8 7 -17 16 -20 23 -9 3777 -7 3791 2 6 4 17 30 24 57 14 55 103
307 140 395 51 121 182 372 256 490 190 305 440 584 695 777 36 28 72 53 80
56 11 4 11 7 0 18 -20 21 -239 19 -321 -4 -90 -24 -232 -94 -321 -158 l-75
-53 -82 3 c-183 6 -312 -76 -396 -252 -57 -121 -97 -309 -97 -464 l0 -53 -39
0 c-28 0 -48 -7 -68 -25 l-28 -24 31 -1 c36 0 55 -19 83 -80 27 -60 27 -65
-13 -88 -114 -67 -273 -92 -346 -54 -48 25 -100 104 -100 151 0 69 69 113 145
92 l36 -10 -6 32 c-4 18 -16 47 -27 65 -17 28 -25 32 -61 32 -23 -1 -53 -7
-67 -15 -40 -23 -44 -18 -17 18 14 18 31 52 37 74 11 36 10 46 -6 79 -49 100
-188 112 -244 22 -23 -37 -21 -89 6 -142 8 -16 13 -31 11 -33 -2 -2 -20 4 -40
12 -88 36 -142 6 -160 -92 -6 -31 -5 -32 21 -27 21 4 36 -1 60 -21 18 -15 32
-34 32 -42 0 -22 -56 -123 -91 -167 -17 -20 -50 -46 -72 -58 -106 -54 -217 -3
-336 155 l-42 56 125 124 c69 68 126 131 126 140 0 10 4 17 8 17 14 0 50 81
69 152 15 58 16 73 4 120 -37 146 -121 238 -316 348 -49 27 -92 47 -97 44 -4
-3 -8 -1 -8 4 0 6 -21 16 -46 23 -26 8 -48 19 -51 25 -2 6 10 37 26 69 113
217 19 420 -271 583 -32 18 -63 32 -70 32 -7 0 -48 -21 -90 -46z"/>
<path d="M4090 8625 c-74 -34 -110 -87 -110 -166 0 -152 166 -231 286 -137 33
27 64 92 64 138 0 120 -135 212 -240 165z"/>
<path d="M8558 8620 c-122 -37 -169 -197 -85 -289 29 -32 94 -61 136 -61 47 0
112 33 141 72 29 39 39 132 20 178 -17 41 -71 87 -117 99 -43 12 -57 13 -95 1z"/>
<path d="M3085 8589 c-342 -36 -754 -79 -915 -95 -91 -8 -174 -19 -184 -23
-12 -5 32 -12 115 -20 74 -7 193 -19 264 -26 72 -8 285 -30 475 -50 190 -19
367 -38 393 -41 l49 -6 -27 40 c-43 65 -33 161 23 225 18 21 36 21 -193 -4z"/>
<path d="M3640 8592 c-58 -26 -90 -73 -90 -132 0 -90 62 -146 154 -137 41 4
55 10 83 40 37 42 48 73 39 121 -15 82 -115 139 -186 108z"/>
<path d="M9481 8583 c56 -62 66 -163 24 -226 -14 -20 -22 -37 -18 -37 4 0 136
14 293 30 157 16 398 42 535 56 495 52 483 50 445 57 -19 4 -125 16 -235 27
-110 11 -261 27 -335 35 -74 8 -247 26 -385 40 -137 14 -270 28 -295 31 -43 6
-44 5 -29 -13z"/>
<path d="M9014 8576 c-128 -58 -97 -250 44 -264 89 -8 152 48 152 136 0 103
-103 170 -196 128z"/>
<path d="M4511 8502 c9 -37 20 -98 24 -135 l7 -67 1842 2 1841 3 7 93 c6 90
11 122 24 156 6 15 -158 16 -1878 16 l-1884 0 17 -68z m253 -11 l58 -59 -55
-56 c-29 -31 -58 -56 -63 -56 -5 0 -35 26 -67 57 l-57 57 57 58 c32 32 60 58
63 58 3 0 32 -26 64 -59z m318 2 l58 -57 -57 -58 c-32 -32 -62 -58 -68 -58 -6
0 -35 25 -65 55 l-54 55 25 27 c29 33 92 92 99 93 2 0 30 -26 62 -57z m291 0
l57 -57 -20 -21 c-11 -12 -17 -25 -13 -30 5 -4 3 -5 -3 -2 -6 3 -26 -9 -44
-28 -19 -19 -37 -35 -41 -35 -3 0 -32 26 -63 57 l-56 58 57 57 c32 32 60 58
63 58 3 0 32 -26 63 -57z m310 -1 l57 -58 -57 -57 c-32 -31 -62 -57 -67 -57
-5 0 -34 25 -63 56 l-55 56 58 59 c32 33 61 59 64 59 3 0 31 -26 63 -58z m282
-2 l59 -60 -54 -55 c-30 -30 -59 -55 -65 -55 -6 0 -36 26 -68 57 l-57 57 57
58 c32 32 60 58 63 58 3 0 32 -27 65 -60z m316 -13 c22 -21 39 -41 39 -45 0
-12 -102 -112 -114 -112 -7 0 -36 25 -65 54 l-54 55 38 43 c21 24 47 51 59 60
24 19 21 21 97 -55z m301 16 l58 -57 -57 -58 c-32 -32 -61 -58 -64 -58 -4 0
-32 26 -63 58 l-55 57 57 58 c31 31 59 57 61 57 3 0 31 -26 63 -57z m332 -2
l59 -59 -55 -56 c-30 -31 -59 -56 -63 -56 -5 0 -35 26 -67 57 l-58 57 57 58
c32 32 60 58 63 58 3 0 32 -27 64 -59z m293 7 c29 -29 53 -57 53 -62 0 -14
-102 -116 -115 -116 -6 0 -35 25 -65 55 l-54 55 59 60 c33 33 62 60 64 60 3 0
29 -23 58 -52z m295 -5 l58 -57 -57 -58 c-32 -32 -61 -58 -65 -58 -5 0 -34 25
-65 56 l-56 55 59 60 c32 32 61 59 63 59 3 0 31 -26 63 -57z m301 -1 l58 -59
-57 -56 c-31 -32 -60 -57 -64 -57 -3 0 -17 11 -30 25 -13 14 -30 23 -37 21 -7
-3 -10 0 -7 7 2 7 -7 24 -21 37 l-25 24 57 58 c32 32 60 58 63 58 3 0 32 -26
63 -58z m322 -2 l58 -59 -39 -44 c-21 -24 -49 -50 -62 -58 -21 -12 -26 -9 -77
41 -30 30 -55 60 -55 66 0 11 99 114 110 114 3 0 32 -27 65 -60z"/>
<path d="M4580 8045 l0 -35 1805 0 1805 0 0 35 0 35 -1805 0 -1805 0 0 -35z"/>
<path d="M4805 7665 l-25 -24 0 -319 c0 -308 1 -320 21 -346 26 -33 77 -36
105 -5 16 18 19 40 22 160 l4 139 154 0 154 0 0 -140 c0 -127 2 -142 20 -160
11 -11 33 -20 50 -20 17 0 39 9 50 20 19 19 20 33 20 349 l0 330 -26 20 c-35
27 -59 26 -89 -4 -24 -23 -25 -30 -25 -150 l0 -125 -155 0 -155 0 0 109 c0 59
-5 122 -11 140 -19 55 -73 68 -114 26z"/>
<path d="M5752 7675 c-105 -30 -167 -81 -210 -174 -35 -74 -43 -223 -18 -315
45 -162 168 -243 356 -234 185 9 296 112 319 298 18 144 -28 296 -110 361 -84
66 -229 94 -337 64z m169 -116 c87 -29 134 -115 133 -245 0 -68 -5 -90 -28
-138 -43 -87 -126 -128 -214 -106 -65 16 -97 43 -128 107 -23 47 -28 69 -28
137 0 95 14 144 57 193 52 59 128 78 208 52z"/>
<path d="M7606 7669 l-26 -20 0 -325 c0 -311 1 -325 20 -344 19 -19 33 -20
235 -20 202 0 216 1 235 20 21 21 25 47 12 66 -18 28 -56 34 -206 34 l-156 0
0 280 0 281 -25 24 c-30 30 -54 31 -89 4z"/>
<path d="M6255 7668 c-26 -15 -35 -28 -35 -54 0 -42 29 -54 133 -54 l96 0 3
-284 c3 -263 4 -285 22 -305 12 -13 31 -21 51 -21 20 0 39 8 51 21 18 20 19
42 22 305 l3 284 98 0 c82 0 101 3 114 18 29 32 21 69 -20 91 -30 15 -510 15
-538 -1z"/>
<path d="M6965 7670 c-50 -19 -50 -22 -50 -357 l0 -315 24 -19 c21 -17 42 -19
255 -19 171 0 236 3 248 13 26 20 30 52 11 76 -17 21 -25 22 -205 22 l-188 0
0 105 0 104 170 0 c167 0 170 0 185 24 20 30 6 71 -27 79 -13 4 -92 7 -175 7
l-153 0 0 85 0 85 173 0 c197 0 221 7 215 63 -5 52 -28 57 -258 56 -113 0
-214 -4 -225 -9z"/>
<path d="M7527 6540 c-222 -59 -363 -205 -417 -433 -69 -285 37 -565 258 -680
155 -81 359 -95 518 -36 111 42 205 163 220 285 8 63 -8 49 -29 -26 -33 -114
-97 -184 -203 -221 -88 -31 -235 -24 -321 15 -155 70 -245 233 -260 466 -10
174 29 328 118 458 84 124 188 179 319 170 129 -10 242 -102 300 -247 17 -42
35 -86 40 -98 5 -13 15 -23 21 -23 9 0 10 21 5 77 -3 42 -6 125 -6 185 0 112
-9 133 -38 87 -16 -25 -39 -24 -166 14 -110 33 -252 36 -359 7z"/>
<path d="M4660 6531 c0 -6 18 -14 41 -17 49 -8 97 -46 116 -92 20 -48 20 -876
0 -925 -19 -45 -68 -84 -117 -92 -22 -4 -40 -11 -40 -17 0 -6 135 -9 393 -6
356 3 397 5 451 23 82 27 148 89 176 163 30 79 25 195 -12 267 -44 85 -127
147 -217 161 -56 9 -59 19 -12 38 99 39 154 126 154 241 0 60 -4 80 -29 125
-30 56 -85 100 -154 122 -48 15 -750 24 -750 9z m585 -32 c116 -32 186 -204
139 -341 -34 -100 -107 -140 -276 -153 l-88 -7 0 256 0 256 93 0 c50 0 110 -5
132 -11z m97 -543 c53 -20 111 -78 135 -134 23 -56 28 -169 10 -232 -32 -108
-121 -171 -255 -178 -101 -6 -151 13 -185 67 -21 34 -22 48 -25 270 l-3 233
138 -4 c95 -4 153 -11 185 -22z"/>
<path d="M5826 6531 c-4 -5 11 -12 32 -16 59 -10 101 -40 123 -90 19 -42 19
-65 17 -477 -3 -478 -2 -472 -67 -515 -19 -13 -52 -26 -73 -29 -96 -16 -16
-24 232 -24 149 0 270 4 270 8 0 5 -22 14 -49 21 -52 13 -93 48 -111 96 -7 17
-14 114 -17 221 l-6 191 31 34 c17 19 32 32 34 29 3 -3 61 -75 130 -161 153
-189 238 -312 238 -344 0 -32 -24 -53 -76 -67 -24 -7 -44 -16 -44 -20 0 -4
126 -8 280 -8 155 0 280 4 280 9 0 5 -19 13 -43 19 -91 23 -143 75 -392 392
-129 165 -235 304 -235 309 0 11 330 330 380 366 19 14 51 30 72 36 80 21 38
30 -142 29 -99 -1 -180 -5 -180 -10 0 -4 20 -13 45 -19 48 -12 65 -33 65 -77
0 -23 -39 -67 -212 -241 -117 -117 -217 -213 -222 -213 -13 0 -1 398 14 435
19 49 58 83 111 95 27 7 49 16 49 21 0 12 -527 12 -534 0z"/>
<path d="M3516 4790 c-209 -53 -341 -173 -409 -370 -39 -110 -48 -285 -23
-394 61 -257 246 -406 526 -423 123 -7 224 13 306 63 90 54 140 126 163 232
13 64 14 72 2 72 -5 0 -12 -18 -16 -39 -11 -66 -59 -154 -105 -194 -81 -69
-210 -99 -329 -77 -161 29 -270 131 -329 308 -23 70 -26 92 -26 237 0 153 1
164 30 246 75 210 204 329 362 332 98 2 154 -17 218 -76 72 -66 92 -95 134
-200 19 -49 39 -89 43 -88 11 1 9 353 -2 364 -5 5 -15 0 -22 -10 -25 -34 -36
-34 -141 -2 -136 41 -267 48 -382 19z"/>
<path d="M5839 4795 c-229 -56 -419 -236 -474 -450 -8 -32 -15 -101 -15 -152
0 -259 164 -476 425 -564 99 -33 258 -34 365 -1 397 123 569 568 348 899 -118
175 -318 284 -519 282 -41 0 -99 -7 -130 -14z m278 -40 c100 -45 177 -149 228
-305 37 -113 46 -317 20 -435 -33 -149 -128 -291 -234 -348 -96 -53 -228 -55
-325 -5 -102 52 -210 215 -241 363 -33 159 -8 379 59 518 39 81 107 163 164
199 83 51 231 57 329 13z"/>
<path d="M4190 4771 c0 -4 19 -11 42 -14 51 -7 88 -33 110 -78 16 -32 18 -78
18 -472 1 -387 -1 -442 -16 -472 -21 -45 -64 -76 -114 -82 -22 -3 -40 -10 -40
-14 0 -5 122 -9 270 -9 173 0 270 4 270 10 0 6 -12 10 -27 10 -42 0 -106 36
-128 72 -18 30 -20 55 -23 251 l-3 217 51 0 c64 0 97 -17 150 -77 39 -45 166
-289 221 -425 l23 -58 143 0 c137 0 183 10 108 24 -51 10 -83 55 -200 288 -99
195 -143 258 -178 258 -22 0 8 18 58 34 64 20 117 64 153 124 24 41 27 57 27
132 0 62 -5 94 -18 117 -27 51 -77 102 -118 124 -83 42 -147 49 -471 49 -170
0 -308 -4 -308 -9z m565 -35 c53 -22 91 -60 123 -121 36 -69 37 -188 3 -255
-53 -102 -110 -137 -241 -147 l-90 -6 0 278 0 278 83 -5 c45 -3 100 -13 122
-22z"/>
<path d="M6640 4770 c0 -5 14 -10 31 -10 46 0 103 -37 130 -83 12 -23 116
-267 230 -542 165 -397 211 -501 227 -503 22 -3 24 1 162 413 107 317 162 475
166 475 1 0 69 -200 151 -445 129 -388 150 -445 167 -443 14 2 61 106 210 468
106 256 204 488 219 516 46 90 104 144 156 144 11 0 23 5 26 10 4 7 -62 10
-189 10 -124 0 -196 -4 -196 -10 0 -5 15 -10 34 -10 44 0 83 -32 97 -78 21
-72 -2 -142 -242 -724 -17 -43 -35 -78 -39 -78 -3 0 -20 46 -37 103 -17 56
-68 219 -113 362 -94 300 -98 336 -41 387 25 23 41 28 81 28 28 0 50 5 50 10
0 6 -97 10 -270 10 -173 0 -270 -4 -270 -10 0 -5 15 -10 33 -10 81 0 144 -87
134 -189 -5 -57 -204 -681 -217 -681 -3 0 -48 102 -99 228 -52 125 -120 291
-152 369 -68 163 -74 206 -33 247 22 21 36 26 75 26 27 0 49 5 49 10 0 6 -95
10 -265 10 -170 0 -265 -4 -265 -10z"/>
<path d="M8530 4770 c0 -5 15 -10 34 -10 42 0 94 -34 120 -80 20 -34 21 -49
21 -475 0 -422 -1 -441 -20 -474 -27 -46 -64 -71 -113 -78 -23 -3 -42 -10 -42
-14 0 -5 88 -9 195 -9 107 0 195 4 195 9 0 4 -19 11 -42 14 -52 7 -88 33 -113
83 -19 37 -20 62 -23 462 -2 232 1 422 5 421 4 0 184 -222 398 -494 303 -384
395 -494 413 -494 l22 -1 0 503 c0 472 2 505 19 544 21 45 78 83 126 83 14 0
25 5 25 10 0 6 -70 10 -190 10 -104 0 -190 -4 -190 -9 0 -4 18 -11 40 -14 54
-7 95 -39 114 -90 14 -36 16 -91 14 -397 l-3 -354 -338 432 -339 432 -164 0
c-103 0 -164 -4 -164 -10z"/>
<path d="M6305 3118 c-100 -51 -130 -116 -81 -175 34 -41 55 -85 62 -134 l6
-44 -27 40 c-79 115 -143 147 -215 110 -65 -33 -79 -98 -32 -145 36 -36 87
-50 183 -50 l77 0 6 -31 c10 -53 7 -119 -8 -148 -18 -34 -54 -51 -112 -51 -61
0 -101 22 -112 62 -4 17 -17 37 -29 45 -19 13 -23 12 -42 -8 -53 -57 -1 -149
91 -163 59 -9 110 0 170 30 69 35 170 34 241 -3 42 -21 66 -27 122 -27 106 0
155 33 155 104 0 44 -17 70 -44 70 -27 0 -41 -14 -50 -52 -8 -36 -52 -58 -117
-58 -45 0 -55 4 -85 34 -30 30 -34 41 -34 84 0 27 3 63 6 80 l6 30 97 4 c108
4 161 23 180 64 19 43 13 74 -23 110 -38 38 -86 45 -135 20 -33 -17 -84 -73
-107 -117 -8 -17 -18 -28 -21 -25 -12 12 22 111 53 152 62 81 40 141 -71 193
-54 26 -60 26 -110 -1z"/>
<path d="M3135 2714 c-415 -10 -1191 -45 -1280 -57 -11 -2 27 -6 85 -11 531
-37 1568 -53 2538 -38 676 11 1590 37 1599 45 3 4 -622 34 -982 48 -249 9
-1714 19 -1960 13z"/>
<path d="M7700 2709 c-362 -9 -1115 -47 -1107 -56 11 -10 643 -34 1202 -45
814 -15 2208 3 2895 39 l145 7 -130 7 c-945 53 -2087 71 -3005 48z"/>
</g>
</svg>
